<?xml version="1.0" encoding="utf-8"?>
<!-- Generator: Adobe Illustrator 16.0.0, SVG Export Plug-In . SVG Version: 6.00 Build 0)  -->
<!DOCTYPE svg PUBLIC "-//W3C//DTD SVG 1.1//EN" "http://www.w3.org/Graphics/SVG/1.1/DTD/svg11.dtd">
<svg version="1.1"
	 id="Layer_1" sodipodi:docname="qgis-logo_anita0.svg" inkscape:version="0.91 r13725" inkscape:export-filename="E:\Google Drive\QGIS_Graphics\Logo candidate 3.0 final files\qgis-logo_anita0.png" inkscape:export-xdpi="278" inkscape:export-ydpi="278" xmlns:dc="http://purl.org/dc/elements/1.1/" xmlns:cc="http://creativecommons.org/ns#" xmlns:rdf="http://www.w3.org/1999/02/22-rdf-syntax-ns#" xmlns:svg="http://www.w3.org/2000/svg" xmlns:sodipodi="http://sodipodi.sourceforge.net/DTD/sodipodi-0.dtd" xmlns:inkscape="http://www.inkscape.org/namespaces/inkscape"
	 xmlns="http://www.w3.org/2000/svg" xmlns:xlink="http://www.w3.org/1999/xlink" x="0px" y="0px" width="415.479px"
	 height="228.654px" viewBox="-425.086 437.557 415.479 228.654" enable-background="new -425.086 437.557 415.479 228.654"
	 xml:space="preserve">
<sodipodi:namedview  id="namedview42" inkscape:current-layer="Layer_1" inkscape:window-maximized="1" inkscape:window-y="-8" inkscape:window-x="54" inkscape:window-height="1057" inkscape:window-width="1858" inkscape:pageshadow="2" inkscape:pageopacity="0" inkscape:cy="99.211642" inkscape:cx="253.46248" inkscape:zoom="1.2565238" showgrid="false" guidetolerance="10" gridtolerance="10" objecttolerance="10" bordercolor="#666666" pagecolor="#ffffff" borderopacity="1">
	</sodipodi:namedview>
<g>
	<polygon id="polygon3_3_" fill="#EE7913" points="-280.385,558.186 -258.873,558.186 -277.08,540.186 -299.385,540.186 
		-299.385,561.618 -280.385,580.556 	"/>
	
		<linearGradient id="polygon31_1_" gradientUnits="userSpaceOnUse" x1="-232.5554" y1="-257.873" x2="-234.8146" y2="-109.3365" gradientTransform="matrix(1 0 0 -1 -8.3599 370.3457)">
		<stop  offset="0" style="stop-color:#589632"/>
		<stop  offset="1" style="stop-color:#93B023"/>
	</linearGradient>
	<polygon id="polygon31_3_" fill="url(#polygon31_1_)" points="-211.385,605.132 -249.768,567.186 -271.385,567.186 
		-271.385,589.525 -234.603,626.186 -211.385,626.186 	"/>
	<polygon id="polygon33_2_" fill="#F0E64A" points="-271.385,567.186 -249.768,567.186 -258.873,558.186 -280.385,558.186 
		-280.385,580.556 -271.385,589.525 	"/>
	
		<linearGradient id="path40_1_" gradientUnits="userSpaceOnUse" x1="-278.2737" y1="-258.0752" x2="-280.5141" y2="-110.774" gradientTransform="matrix(1 0 0 -1 -8.3599 370.3457)">
		<stop  offset="0" style="stop-color:#589632"/>
		<stop  offset="1" style="stop-color:#93B023"/>
	</linearGradient>
	<path id="path40_3_" fill="url(#path40_1_)" d="M-277.334,595.05c-3.259,0.75-6.648,1.156-10.144,1.156
		c-25.006,0-46.271-20.562-46.271-47.222c0-26.659,21.032-46.769,46.271-46.769c25.238,0,45.336,20.107,45.336,46.769
		c0,4.336-0.54,8.509-1.539,12.46l23.144,23.141c5.967-10.455,9.305-22.611,9.305-35.778c0-41.09-32.791-71.856-76.714-71.856
		c-43.722,0-76.512,30.564-76.512,71.856c0,41.494,32.791,72.666,76.512,72.666c11.287,0,21.835-2.076,31.284-5.854L-277.334,595.05
		z"/>
	<g>
		<linearGradient id="SVGID_1_" gradientUnits="userSpaceOnUse" x1="-180.157" y1="624.2969" x2="-180.157" y2="478.9614">
			<stop  offset="0" style="stop-color:#589632"/>
			<stop  offset="1" style="stop-color:#93B023"/>
		</linearGradient>
		<path fill="url(#SVGID_1_)" d="M-189.787,572.197c0-3.578,3.263-5.367,8.104-5.367c5.999,0,15.786,3.157,23.574,7.683
			l7.051-14.628c-7.577-4.946-18.417-8.209-29.046-8.209c-17.681,0-29.362,8.63-29.362,22.205c0,26.1,38.938,18.312,38.938,31.362
			c0,4.209-3.683,6.419-9.576,6.419c-7.023,0-19.563-1.456-24.58-4.176v18.699c6.375,0.665,15.938,0.632,24.369,0.632
			c16.418,0,29.468-7.788,29.468-22.521C-150.847,577.67-189.787,584.932-189.787,572.197z"/>
		<linearGradient id="SVGID_2_" gradientUnits="userSpaceOnUse" x1="-107.4368" y1="624.2969" x2="-107.4368" y2="478.9614">
			<stop  offset="0" style="stop-color:#589632"/>
			<stop  offset="1" style="stop-color:#93B023"/>
		</linearGradient>
		<path fill="url(#SVGID_2_)" d="M-114.119,597.244l-9.788,10.84v18.102h-18.732v-73.668h18.732v31.888l28.205-31.888h21.679
			l-27.362,30.52l29.151,43.148H-94.65L-114.119,597.244z"/>
	</g>
</g>
</svg>
